<?xml version="1.0" encoding="utf-8"?>
<!-- Generator: Adobe Illustrator 19.2.0, SVG Export Plug-In . SVG Version: 6.00 Build 0)  -->
<svg version="1.1" id="Layer_1" xmlns="http://www.w3.org/2000/svg" xmlns:xlink="http://www.w3.org/1999/xlink" x="0px" y="0px"
	 viewBox="0 0 89.3 34.1" style="enable-background:new 0 0 89.3 34.1;" xml:space="preserve">
<style type="text/css">
	.st0{fill:#FFFFFF;}
	.st1{fill:none;stroke:#FFFFFF;stroke-width:3;stroke-miterlimit:10;}
</style>
<g transform="translate(-4989.45 -3767.92)">
	<path class="st0" d="M4992.8,3800.7c0,0.1,0,0.2,0,0.3c0,0.1,0,0.1,0.1,0.2c0,0,0.1,0.1,0.2,0.1c0.1,0,0.2,0,0.3,0c0,0,0,0,0,0
		c0,0,0,0,0,0.1c0,0,0,0,0,0.1c0,0,0,0-0.1,0c-0.1,0-0.3,0-0.4,0c-0.1,0-0.3,0-0.4,0c-0.1,0-0.3,0-0.4,0c-0.1,0-0.3,0-0.4,0
		c0,0,0,0,0,0c0,0,0,0,0-0.1c0,0,0,0,0-0.1c0,0,0,0,0,0c0.1,0,0.2,0,0.3,0c0.1,0,0.1,0,0.2-0.1c0,0,0.1-0.1,0.1-0.2
		c0-0.1,0-0.2,0-0.3v-2.3c0-0.1,0-0.2-0.1-0.2c-0.1,0-0.2-0.1-0.3,0c-0.1,0-0.2,0-0.3,0c-0.1,0-0.2,0.1-0.2,0.1
		c-0.1,0.1-0.1,0.1-0.1,0.2c0,0.1-0.1,0.2-0.1,0.3c0,0,0,0,0,0h-0.1h-0.1c0,0,0,0,0,0c0-0.1,0-0.3,0-0.4c0-0.1,0-0.3,0-0.4
		c0,0,0-0.1,0.1-0.1c0.1,0,0.1,0,0.2,0h2.9c0.1,0,0.1,0,0.2,0c0,0,0.1,0,0.1,0.1v0.2c0,0,0,0.1,0,0.2s0,0.2,0,0.2c0,0.1,0,0.2,0,0.2
		c0,0,0,0,0,0c0,0,0,0-0.1,0h-0.1c0,0,0,0,0,0c0-0.1,0-0.2-0.1-0.3c0-0.1-0.1-0.2-0.1-0.2c-0.1-0.1-0.1-0.1-0.2-0.1
		c-0.1,0-0.2,0-0.3,0c-0.1,0-0.2,0-0.4,0c-0.1,0.1-0.1,0.2-0.1,0.2V3800.7L4992.8,3800.7z"/>
	<path class="st0" d="M5002.4,3797.8L5002.4,3797.8c0.1,0,0.1,0,0.1,0.1c0,0,0,0.1,0,0.1v0.1v0.4c0,0,0,0,0,0h-0.1h-0.1c0,0,0,0,0,0
		c0-0.1,0-0.2-0.1-0.3c0-0.1-0.1-0.1-0.1-0.2c-0.1,0-0.1-0.1-0.2-0.1h-0.3h-0.5c0,0-0.1,0-0.1,0c0,0-0.1,0.1-0.1,0.1
		c0,0.1,0,0.1,0,0.2v0.9c0,0,0,0.1,0,0.1c0,0,0,0,0.1,0c0.1,0,0.3,0,0.4,0c0.1,0,0.2,0,0.2-0.1c0,0,0.1-0.1,0.1-0.1
		c0-0.1,0-0.2,0-0.2c0,0,0,0,0,0c0,0,0,0,0.1,0c0,0,0,0,0.1,0c0,0,0,0,0,0v0.2v0.1v0.1v0.2c0,0.1,0,0.2,0,0.3c0,0.1,0,0.2,0,0.3
		c0,0,0,0,0,0c0,0,0,0-0.1,0h-0.1c0,0,0,0,0,0c0-0.1,0-0.2,0-0.2c0-0.1,0-0.1-0.1-0.1c-0.1,0-0.1-0.1-0.2-0.1c-0.1,0-0.3,0-0.4,0
		c0,0,0,0-0.1,0c0,0,0,0,0,0.1v0.7c0,0.1,0,0.2,0,0.3c0,0.1,0,0.1,0.1,0.2c0,0,0.1,0.1,0.1,0.1c0.1,0,0.1,0.1,0.2,0.1h0.2h0.2h0.2
		c0.1,0,0.1,0,0.2,0c0.1,0,0.1,0,0.2-0.1c0.1,0,0.1-0.1,0.1-0.1c0-0.1,0.1-0.1,0.1-0.2c0-0.1,0-0.2,0.1-0.3c0,0,0,0,0,0h0.1
		c0,0,0,0,0.1,0c0,0,0,0,0,0c0,0.1,0,0.3,0,0.4c0,0.1,0,0.3,0,0.4c0,0,0,0,0,0c0,0-0.1,0-0.1,0h-2h-0.4h-0.4c0,0,0,0-0.1,0
		c0,0,0,0,0-0.1c0,0,0,0,0-0.1c0,0,0,0,0.1,0c0.1,0,0.1,0,0.2,0c0.1,0,0.1,0,0.2-0.1c0,0,0.1-0.1,0.1-0.1c0-0.1,0-0.1,0-0.2v-2
		c0-0.1,0-0.2,0-0.2c0-0.1,0-0.1,0-0.2c0-0.1,0-0.1-0.1-0.2c0,0-0.1-0.1-0.2-0.1h-0.1h-0.1c0,0,0,0,0,0c0,0,0-0.1,0-0.1c0,0,0,0,0,0
		h0.3h0.3L5002.4,3797.8L5002.4,3797.8z"/>
	<path class="st0" d="M5010.4,3797.7c0.2,0,0.3,0,0.4,0.1c0.1,0,0.3,0.1,0.4,0.2l0.1,0c0,0,0.1,0,0.1,0c0.1,0,0.1,0,0.1-0.1
		c0,0,0,0,0,0h0.1h0c0,0.1,0,0.1,0,0.2v0.2c0,0.1,0,0.2,0,0.3l0,0.3c0,0,0,0,0,0h-0.1h-0.1c0,0,0,0,0,0c-0.1-0.3-0.2-0.5-0.4-0.7
		c-0.2-0.2-0.5-0.2-0.8-0.2c-0.2,0-0.4,0-0.6,0.1c-0.2,0.1-0.3,0.2-0.4,0.4c-0.1,0.2-0.2,0.4-0.2,0.5c0,0.2-0.1,0.4-0.1,0.5
		c0,0.2,0,0.4,0.1,0.6c0,0.2,0.1,0.4,0.2,0.5c0.1,0.2,0.2,0.3,0.4,0.4c0.2,0.1,0.4,0.2,0.6,0.2c0.2,0,0.3,0,0.5,0
		c0.1,0,0.2-0.1,0.3-0.2c0.1-0.1,0.2-0.2,0.3-0.4c0.1-0.2,0.1-0.3,0.1-0.5c0,0,0,0,0,0c0,0,0,0,0.1,0c0,0,0,0,0.1,0c0,0,0,0,0,0v0.2
		c0,0,0,0.1,0,0.2s0,0.2,0,0.4s0,0.3,0,0.4c0,0,0,0,0,0c0,0,0,0,0,0c0,0,0,0-0.1,0c0,0,0,0,0,0c0,0,0-0.1,0-0.1c0,0,0-0.1-0.1-0.1
		c0,0-0.1,0-0.1,0c0,0-0.1,0-0.1,0c-0.1,0-0.1,0.1-0.2,0.1c-0.1,0-0.1,0.1-0.2,0.1c-0.1,0-0.2,0-0.2,0h-0.3c-0.5,0-1-0.1-1.4-0.5
		c-0.3-0.4-0.5-0.8-0.5-1.3c0-0.3,0-0.6,0.1-0.8c0.2-0.5,0.5-0.8,1-1C5009.9,3797.7,5010.1,3797.7,5010.4,3797.7L5010.4,3797.7z"/>
	<path class="st0" d="M5020.4,3799.4C5020.4,3799.5,5020.4,3799.5,5020.4,3799.4c0.1,0,0.1-0.1,0.1-0.1v-0.7c0-0.1,0-0.2,0-0.3
		c0-0.1,0-0.1-0.1-0.2c0-0.1-0.1-0.1-0.2-0.1c-0.1,0-0.2,0-0.3,0c0,0,0,0,0,0c0,0,0,0,0-0.1c0,0,0,0,0-0.1c0,0,0,0,0,0h0.4h0.4h0.2
		h0.2h0.2h0.2c0,0,0,0,0,0c0,0,0,0,0,0.1c0,0,0,0,0,0.1c0,0,0,0,0,0c-0.1,0-0.2,0-0.3,0c-0.1,0-0.1,0.1-0.2,0.1
		c0,0.1-0.1,0.1-0.1,0.2c0,0.1,0,0.2,0,0.3v2.1c0,0.1,0,0.2,0,0.3c0,0.1,0,0.1,0.1,0.2c0,0,0.1,0.1,0.2,0.1c0.1,0,0.2,0,0.3,0
		c0,0,0,0,0,0c0,0,0,0,0,0.1c0,0,0,0,0,0.1c0,0,0,0-0.1,0c-0.1,0-0.3,0-0.4,0c-0.1,0-0.3,0-0.4,0c-0.1,0-0.3,0-0.4,0
		c-0.1,0-0.3,0-0.4,0c0,0,0,0,0,0c0,0,0,0,0-0.1c0,0,0,0,0-0.1c0,0,0,0,0,0c0.1,0,0.2,0,0.3,0c0.1,0,0.1,0,0.2-0.1
		c0,0,0.1-0.1,0.1-0.2c0-0.1,0-0.2,0-0.3v-0.9c0-0.1,0-0.1-0.1-0.1c0,0,0,0,0,0h-1.6c-0.1,0-0.1,0-0.1,0.1c0,0,0,0,0,0v0.9
		c0,0.1,0,0.2,0,0.3c0,0.1,0,0.1,0.1,0.2c0,0,0.1,0.1,0.2,0.1c0.1,0,0.2,0,0.3,0c0,0,0,0,0,0c0,0,0,0,0,0.1c0,0,0,0,0,0.1
		c0,0,0,0-0.1,0c-0.1,0-0.3,0-0.4,0c-0.1,0-0.3,0-0.4,0c-0.1,0-0.3,0-0.4,0c-0.1,0-0.3,0-0.4,0c0,0,0,0,0,0c0,0,0,0,0-0.1
		c0,0,0,0,0-0.1c0,0,0,0,0,0c0.1,0,0.2,0,0.3,0c0.1,0,0.1,0,0.2-0.1c0,0,0.1-0.1,0.1-0.2c0-0.1,0-0.2,0-0.3v-2.1c0-0.1,0-0.2,0-0.3
		c0-0.1,0-0.1-0.1-0.2c0-0.1-0.1-0.1-0.2-0.1c-0.1,0-0.2,0-0.3,0c0,0,0,0,0,0c0,0,0,0,0-0.1c0,0,0,0,0-0.1c0,0,0,0,0,0h0.4h0.4h0.2
		h0.2h0.2h0.2c0,0,0,0,0,0c0,0,0,0,0,0.1c0,0,0,0,0,0.1c0,0,0,0,0,0c-0.1,0-0.2,0-0.3,0c-0.1,0-0.1,0.1-0.2,0.1
		c0,0.1-0.1,0.1-0.1,0.2c0,0.1,0,0.2,0,0.3v0.7c0,0.1,0,0.1,0.1,0.1c0,0,0,0,0,0L5020.4,3799.4L5020.4,3799.4z"/>
	<path class="st0" d="M5027.9,3798.4c0-0.1,0-0.2-0.1-0.3c-0.1-0.1-0.2-0.1-0.4-0.1c0,0,0,0,0,0c0,0,0,0,0-0.1c0,0,0,0,0-0.1
		c0,0,0,0,0,0h0.5h0.3c0,0,0.1,0,0.1,0l2.2,2.5c0,0,0.1,0,0.1,0v-1.5c0-0.1,0-0.2,0-0.2s0-0.2,0-0.2c0-0.1,0-0.1,0-0.2
		c0,0,0-0.1-0.1-0.1c0,0,0-0.1-0.1-0.1c0,0-0.1,0-0.1,0h-0.2c0,0,0,0,0,0c0,0,0,0,0-0.1c0,0,0,0,0-0.1c0,0,0,0,0,0h0.3h0.3h0.3
		c0.1,0,0.2,0,0.3,0c0,0,0,0,0,0c0,0,0,0,0,0.1c0,0,0,0,0,0.1c0,0,0,0,0,0h-0.2c0,0-0.1,0-0.1,0c0,0-0.1,0-0.1,0.1
		c0,0-0.1,0.1-0.1,0.1c0,0.1,0,0.1,0,0.2v0.2c0,0,0,0.2,0,0.3v2.5c0,0,0,0,0,0h-0.1h-0.1c0,0,0,0,0,0l-2.3-2.7c0,0,0,0-0.1,0
		c0,0,0,0,0,0.1v1.9c0,0.1,0,0.2,0,0.3c0,0.1,0,0.1,0.1,0.2c0,0,0.1,0.1,0.2,0.1l0.2,0c0,0,0,0,0,0c0,0,0,0,0,0.1c0,0,0,0,0,0.1
		c0,0,0,0,0,0c-0.1,0-0.2,0-0.3,0c-0.1,0-0.2,0-0.3,0c-0.1,0-0.2,0-0.4,0h-0.3c0,0,0,0,0,0c0,0,0,0,0-0.1c0,0,0,0,0-0.1c0,0,0,0,0,0
		l0.2,0c0.1,0,0.1,0,0.2-0.1c0,0,0.1-0.1,0.1-0.2c0-0.1,0-0.2,0-0.3L5027.9,3798.4L5027.9,3798.4z"/>
	<path class="st0" d="M5038.9,3801.4c-0.5,0-1-0.1-1.3-0.5c-0.3-0.4-0.5-0.9-0.5-1.4c0-0.3,0-0.5,0.1-0.7c0.1-0.2,0.2-0.4,0.4-0.6
		c0.2-0.2,0.4-0.3,0.6-0.4c0.5-0.2,1-0.2,1.5,0c0.2,0.1,0.4,0.2,0.5,0.4c0.2,0.2,0.3,0.4,0.4,0.6c0.1,0.2,0.1,0.5,0.1,0.7
		c0,0.3,0,0.6-0.1,0.8c-0.1,0.2-0.2,0.4-0.4,0.6c-0.2,0.2-0.4,0.3-0.6,0.4C5039.3,3801.4,5039.1,3801.4,5038.9,3801.4L5038.9,3801.4
		z M5038.9,3801.2c0.2,0,0.3,0,0.5-0.1c0.1-0.1,0.3-0.2,0.3-0.4c0.1-0.2,0.2-0.3,0.2-0.5c0-0.2,0.1-0.4,0.1-0.6c0-0.2,0-0.4-0.1-0.6
		c0-0.2-0.1-0.4-0.2-0.5c-0.1-0.1-0.2-0.3-0.3-0.4c-0.2-0.1-0.3-0.1-0.5-0.1c-0.2,0-0.4,0-0.5,0.1c-0.1,0.1-0.3,0.2-0.3,0.4
		c-0.1,0.2-0.2,0.4-0.2,0.5c0,0.2-0.1,0.4-0.1,0.6c0,0.2,0,0.4,0.1,0.6c0,0.2,0.1,0.4,0.2,0.5
		C5038.1,3801,5038.5,3801.2,5038.9,3801.2L5038.9,3801.2z"/>
	<path class="st0" d="M5047,3798.6c0-0.1,0-0.2,0-0.3c0-0.1,0-0.1-0.1-0.2c0-0.1-0.1-0.1-0.2-0.1c-0.1,0-0.2,0-0.3,0c0,0,0,0,0,0
		c0,0,0,0,0-0.1c0,0,0,0,0-0.1c0,0,0,0,0,0h0.4h0.4h0.2h0.2h0.2h0.2c0,0,0,0,0,0c0,0,0,0,0,0.1c0,0,0,0,0,0.1c0,0,0,0,0,0
		c-0.1,0-0.2,0-0.3,0c-0.1,0-0.1,0.1-0.2,0.1c0,0.1-0.1,0.1-0.1,0.2c0,0.1,0,0.2,0,0.3v1.8c0,0.1,0,0.2,0,0.3c0,0.1,0,0.1,0.1,0.2
		c0,0.1,0.1,0.1,0.1,0.1c0.1,0,0.1,0.1,0.2,0.1h0.2h0.2h0.2c0.1,0,0.1,0,0.2,0c0.1,0,0.1,0,0.2-0.1c0.1,0,0.1-0.1,0.1-0.1
		c0-0.1,0.1-0.1,0.1-0.2c0-0.1,0-0.2,0.1-0.3c0,0,0,0,0,0h0.1c0,0,0,0,0.1,0c0,0,0,0,0,0c0,0.1,0,0.3,0,0.4c0,0.1,0,0.3,0,0.4
		c0,0,0,0,0,0c0,0-0.1,0-0.1,0h-2h-0.4h-0.4c0,0,0,0-0.1,0c0,0,0,0,0-0.1c0,0,0,0,0-0.1c0,0,0,0,0.1,0l0.3,0c0.1,0,0.1,0,0.2-0.1
		c0,0,0.1-0.1,0.1-0.1c0-0.1,0-0.2,0-0.3L5047,3798.6L5047,3798.6z"/>
	<path class="st0" d="M5056.9,3801.4c-0.5,0-1-0.1-1.3-0.5c-0.3-0.4-0.5-0.9-0.5-1.4c0-0.3,0-0.5,0.1-0.7c0.1-0.2,0.2-0.4,0.4-0.6
		c0.2-0.2,0.4-0.3,0.6-0.4c0.5-0.2,1-0.2,1.5,0c0.2,0.1,0.4,0.2,0.5,0.4c0.2,0.2,0.3,0.4,0.4,0.6c0.1,0.2,0.1,0.5,0.1,0.7
		c0,0.3,0,0.6-0.1,0.8c-0.1,0.2-0.2,0.4-0.4,0.6c-0.2,0.2-0.4,0.3-0.6,0.4C5057.4,3801.4,5057.2,3801.4,5056.9,3801.4L5056.9,3801.4
		z M5056.9,3801.2c0.2,0,0.3,0,0.5-0.1c0.1-0.1,0.3-0.2,0.3-0.4c0.1-0.2,0.2-0.3,0.2-0.5c0-0.2,0.1-0.4,0.1-0.6c0-0.2,0-0.4-0.1-0.6
		c0-0.2-0.1-0.4-0.2-0.5c-0.1-0.1-0.2-0.3-0.3-0.4c-0.2-0.1-0.3-0.1-0.5-0.1c-0.2,0-0.4,0-0.5,0.1c-0.1,0.1-0.3,0.2-0.3,0.4
		c-0.1,0.2-0.2,0.4-0.2,0.5c0,0.2-0.1,0.4-0.1,0.6c0,0.2,0,0.4,0.1,0.6c0,0.2,0.1,0.4,0.2,0.5
		C5056.2,3801,5056.6,3801.2,5056.9,3801.2L5056.9,3801.2z"/>
	<path class="st0" d="M5067.9,3801C5067.9,3801,5067.9,3801,5067.9,3801l-0.3,0.2c-0.1,0.1-0.2,0.1-0.3,0.1c-0.1,0-0.3,0.1-0.4,0.1
		c-0.2,0-0.4,0-0.5,0c-0.3,0-0.5,0-0.8-0.1c-0.2-0.1-0.4-0.2-0.6-0.4c-0.2-0.2-0.3-0.4-0.4-0.6c-0.1-0.3-0.1-0.5-0.1-0.8
		c0-0.3,0-0.5,0.1-0.8c0.1-0.2,0.2-0.4,0.4-0.6c0.2-0.2,0.4-0.3,0.6-0.4c0.2-0.1,0.5-0.1,0.8-0.1c0.2,0,0.3,0,0.5,0.1
		c0.1,0,0.3,0.1,0.4,0.2c0.1,0,0.1,0.1,0.2,0.1c0.1,0,0.1,0,0.1-0.1c0,0,0,0,0,0h0.1h0c0,0,0,0,0,0c0,0.1,0,0.3,0,0.4
		c0,0.2,0,0.3,0,0.5c0,0,0,0,0,0c0,0,0,0-0.1,0c0,0,0,0-0.1,0c0,0,0,0,0,0c0-0.3-0.2-0.5-0.4-0.7c-0.2-0.2-0.5-0.3-0.8-0.2
		c-0.2,0-0.4,0-0.5,0.1c-0.1,0.1-0.3,0.2-0.4,0.4c-0.1,0.2-0.2,0.3-0.2,0.5c0,0.2-0.1,0.4-0.1,0.5c0,0.2,0,0.5,0.1,0.7
		c0,0.2,0.1,0.4,0.2,0.5c0.1,0.1,0.2,0.3,0.4,0.3c0.2,0.1,0.3,0.1,0.5,0.1c0.1,0,0.3,0,0.4,0c0.1,0,0.2-0.1,0.3-0.1
		c0.1,0,0.1-0.1,0.2-0.2c0-0.1,0.1-0.2,0.1-0.3c0-0.1,0-0.2,0-0.2c0-0.1,0-0.1-0.1-0.1c0,0-0.1-0.1-0.2-0.1l-0.3,0c0,0,0,0-0.1,0
		c0,0,0,0,0-0.1c0,0,0,0,0-0.1c0,0,0,0,0,0h0.4h0.4h0.3h0.2h0.2c0,0,0,0,0,0c0,0,0,0,0,0.1c0,0,0,0,0,0c0,0,0,0,0,0
		c-0.1,0-0.1,0-0.2,0c0,0-0.1,0-0.1,0.1c0,0,0,0.1,0,0.1v0.2L5067.9,3801L5067.9,3801z"/>
	<path class="st0" d="M5075.9,3800.7c0,0.1,0,0.2,0,0.3c0,0.1,0,0.1,0.1,0.2c0,0,0.1,0.1,0.2,0.1c0.1,0,0.2,0,0.3,0c0,0,0,0,0,0
		c0,0,0,0,0,0.1c0,0,0,0,0,0.1c0,0,0,0-0.1,0c-0.1,0-0.3,0-0.4,0c-0.1,0-0.3,0-0.4,0c-0.1,0-0.3,0-0.4,0c-0.1,0-0.3,0-0.4,0
		c0,0,0,0,0,0c0,0,0,0,0-0.1c0,0,0,0,0-0.1c0,0,0,0,0,0c0.1,0,0.2,0,0.3,0c0.1,0,0.1,0,0.2-0.1c0,0,0.1-0.1,0.1-0.2
		c0-0.1,0-0.2,0-0.3v-0.7l-0.5-0.9l-0.1-0.2l-0.2-0.3l-0.2-0.3c-0.1-0.1-0.1-0.2-0.2-0.2c0,0-0.1-0.1-0.2-0.1l-0.2,0c0,0,0,0,0,0
		c0,0,0-0.1,0-0.1c0,0,0,0,0,0c0.1,0,0.3,0,0.4,0h0.4h0.4h0.4c0,0,0,0,0.1,0c0,0,0,0,0,0.1c0,0,0,0,0,0.1c0,0,0,0-0.1,0
		c-0.1,0-0.2,0-0.3,0.1c-0.1,0-0.1,0.1-0.1,0.1c0,0.1,0,0.2,0.1,0.3l0.6,1.2c0,0,0,0,0,0c0,0,0,0,0.1,0c0.1-0.2,0.2-0.3,0.3-0.5
		c0.1-0.2,0.2-0.3,0.2-0.4c0.1-0.1,0.1-0.2,0.2-0.3c0-0.1,0-0.1,0.1-0.2c0,0,0-0.1,0-0.1c0,0,0-0.1-0.1-0.1c0,0-0.1,0-0.1,0h-0.2
		c0,0,0,0,0,0c0,0,0,0,0-0.1c0,0,0,0,0-0.1c0,0,0,0,0,0c0.1,0,0.2,0,0.3,0h0.3h0.3c0.1,0,0.2,0,0.3,0c0,0,0,0,0,0c0,0,0,0,0,0.1
		c0,0,0,0,0,0.1c0,0,0,0,0,0c-0.1,0-0.3,0.1-0.4,0.2c-0.1,0.1-0.1,0.2-0.2,0.2l-0.1,0.2l-0.8,1.3L5075.9,3800.7L5075.9,3800.7z"/>
	<path class="st0" d="M5012.8,3783.7c0-0.8-0.2-1.6-0.8-2.3c-0.8-0.7-1.7-1.3-2.8-1.6c-1.6-0.4-3.1-1.2-4.3-2.3
		c-1-0.9-1.6-2.3-1.5-3.7c0-1.5,0.6-2.9,1.7-3.9c1.2-1,2.7-1.6,4.3-1.5c1.7-0.1,3.3,0.5,4.4,1.7c1.1,1.1,1.7,2.7,1.6,4.3l0,0.1h-2.7
		c0-1-0.3-2-0.9-2.8c-0.6-0.7-1.5-1.1-2.5-1.1c-0.9,0-1.7,0.3-2.3,0.9c-0.6,0.6-0.8,1.5-0.8,2.3c0,0.8,0.3,1.6,0.9,2.2
		c0.8,0.7,1.8,1.3,2.9,1.6c1.5,0.4,3,1.2,4.2,2.3c1,1,1.5,2.3,1.4,3.7c0.1,1.5-0.6,2.9-1.7,3.9c-1.2,1-2.8,1.5-4.4,1.4
		c-1.7,0-3.3-0.5-4.6-1.6c-1.3-1-1.9-2.5-1.9-4.5l0-0.1h2.7c0,1.4,0.4,2.4,1.1,3c0.7,0.7,1.7,1,2.7,1c0.9,0.1,1.8-0.3,2.4-0.9
		C5012.5,3785.4,5012.9,3784.5,5012.8,3783.7L5012.8,3783.7z"/>
	<path class="st0" d="M5031.2,3782.7L5031.2,3782.7c0.1,2-0.5,3.6-1.6,4.7c-1.1,1.1-2.7,1.6-4.7,1.6c-1.8,0.1-3.6-0.6-4.9-2
		c-1.2-1.3-1.8-3.1-1.8-5.5v-5.5c0-2.4,0.6-4.2,1.8-5.5c1.2-1.3,3-2.1,4.8-2c2,0,3.6,0.5,4.8,1.6c1.1,1.1,1.7,2.6,1.7,4.6l0,0.1
		h-2.7c0-1.4-0.3-2.5-0.9-3.1c-0.7-0.7-1.8-1.1-2.8-1c-1.1-0.1-2.2,0.5-2.8,1.4c-0.7,0.9-1,2.2-1,4v5.6c0,1.7,0.3,3.1,1,4
		c0.7,0.9,1.8,1.4,2.9,1.4c1,0.1,2-0.3,2.7-1c0.6-0.7,0.9-1.7,0.9-3.2L5031.2,3782.7L5031.2,3782.7z"/>
	<path class="st0" d="M5047.7,3781.4c0,2.4-0.6,4.2-1.9,5.5c-1.4,1.4-3.2,2.1-5.1,2c-1.9,0.1-3.7-0.6-5.1-2
		c-1.3-1.3-1.9-3.2-1.9-5.5v-5.5c0-2.4,0.6-4.2,1.9-5.5c1.3-1.4,3.2-2.1,5-2c1.9-0.1,3.8,0.6,5.1,2c1.3,1.3,1.9,3.2,1.9,5.5
		L5047.7,3781.4z M5044.9,3775.9c0-1.7-0.4-3.1-1.1-4c-0.8-0.9-2-1.4-3.2-1.3c-1.2-0.1-2.3,0.4-3.1,1.3c-0.7,0.9-1.1,2.2-1.1,4v5.5
		c0,1.8,0.4,3.1,1.1,4c0.8,0.9,1.9,1.4,3.1,1.4c1.2,0.1,2.4-0.4,3.2-1.3c0.7-0.9,1.1-2.2,1.1-4L5044.9,3775.9L5044.9,3775.9z"/>
	<path class="st0" d="M5053.7,3780.1v8.6h-2.8v-19.9h5.9c1.9,0,3.4,0.5,4.4,1.5c1,1,1.6,2.4,1.6,4.2c0,1-0.2,1.9-0.7,2.7
		c-0.5,0.8-1.2,1.4-2.1,1.8c0.9,0.3,1.7,0.9,2.2,1.7c0.5,0.9,0.7,2,0.7,3v1.7c0,0.6,0.1,1.1,0.2,1.7c0.1,0.5,0.3,0.9,0.6,1.2v0.3
		h-2.9c-0.3-0.4-0.6-0.9-0.6-1.4c-0.1-0.6-0.1-1.3-0.1-1.9v-1.7c0.1-0.9-0.2-1.9-0.8-2.6c-0.5-0.7-1.3-1-2.2-1L5053.7,3780.1
		L5053.7,3780.1z M5053.7,3777.9h3c0.9,0.1,1.9-0.3,2.5-0.9c0.6-0.7,0.9-1.7,0.8-2.6c0.1-1-0.2-1.9-0.8-2.7c-0.6-0.7-1.5-1-2.4-0.9
		h-3.1V3777.9L5053.7,3777.9z"/>
	<path class="st0" d="M5076.1,3779.4h-6.8v7.2h8v2.1h-10.8v-20h10.7v2.2h-7.9v6.4h6.8L5076.1,3779.4L5076.1,3779.4z"/>
</g>
<path class="st1" d="M-35.3,23.4H-16"/>
</svg>
